#N canvas 118 85 894 670 10;
#X declare -path else;
#X declare -path mrpeach;
#X obj 713 24 declare -path else;
#X obj 44 67 initmess listen 7777 169.254.68.52;
#X obj 65 191 print receive;
#X obj 452 562 netsend -u -b;
#X obj 68 127 netreceive -u -b;
#X obj 70 151 oscparse;
#X obj 180 6 tgl 25 0 empty empty empty 17 7 0 10 -262144 -1 -1 0 1
;
#X floatatom 173 243 5 0 0 0 - - -;
#X msg 268 342 format s;
#X obj 173 385 oscformat setar tempoTotal;
#X obj 173 342 any2symbol;
#X obj 173 317 t f b, f 14;
#X obj 452 265 bng 25 250 50 0 empty empty reset 17 7 0 10 -261234
-1 -1;
#X msg 452 297 1;
#X obj 452 321 t f b;
#X msg 484 346 format f;
#X obj 452 394 oscformat reset;
#X obj 53 543 initmess connect 169.254.68.51 5555;
#X obj 645 325 t a b;
#X obj 634 209 pack f f;
#X floatatom 590 134 5 0 0 1 porta - -;
#X obj 726 103 vradio 15 1 0 2 empty empty empty 0 -8 0 10 -262144
-1 -1 0;
#X text 744 102 12V;
#X text 744 118 24V;
#X obj 696 161 sel 0 1, f 12;
#X msg 696 180 12;
#X msg 730 180 24;
#X obj 700 278 display;
#X obj 713 43 declare -path mrpeach;
#X obj 411 195 packOSC;
#X obj 388 103 t b a b;
#X msg 375 140 ];
#X msg 438 139 [;
#X msg 589 100 1;
#X msg 633 249 list Porta \$1 \$2;
#X msg 672 344 format s i i;
#X obj 620 401 oscformat setar tensao;
#X obj 554 537 oscformat setar tensao Porta;
#X msg 601 446 1 12;
#X msg 635 446 1 24;
#X obj 601 474 t a b;
#X msg 628 493 format i i;
#X msg 383 12 1 12;
#X msg 417 12 1 24;
#X obj 382 37 t a b;
#X msg 509 75 prefix /setar/tensao;
#X obj 377 82 list trim;
#X obj 377 61 list prepend send;
#X connect 1 0 4 0;
#X connect 4 0 5 0;
#X connect 5 0 2 0;
#X connect 7 0 11 0;
#X connect 8 0 9 0;
#X connect 9 0 3 0;
#X connect 10 0 9 0;
#X connect 11 0 10 0;
#X connect 11 1 8 0;
#X connect 12 0 13 0;
#X connect 13 0 14 0;
#X connect 14 0 16 0;
#X connect 14 1 15 0;
#X connect 15 0 16 0;
#X connect 16 0 3 0;
#X connect 17 0 3 0;
#X connect 18 0 36 0;
#X connect 18 1 35 0;
#X connect 19 0 34 0;
#X connect 20 0 19 0;
#X connect 21 0 24 0;
#X connect 24 0 25 0;
#X connect 24 1 26 0;
#X connect 25 0 19 1;
#X connect 26 0 19 1;
#X connect 29 0 3 0;
#X connect 30 0 31 0;
#X connect 30 1 29 0;
#X connect 30 2 32 0;
#X connect 31 0 29 0;
#X connect 32 0 29 0;
#X connect 33 0 20 0;
#X connect 34 0 18 0;
#X connect 34 0 27 0;
#X connect 35 0 36 0;
#X connect 36 0 3 0;
#X connect 37 0 3 0;
#X connect 38 0 40 0;
#X connect 39 0 40 0;
#X connect 40 0 37 0;
#X connect 40 1 41 0;
#X connect 41 0 37 0;
#X connect 42 0 44 0;
#X connect 43 0 44 0;
#X connect 44 0 47 0;
#X connect 44 1 45 0;
#X connect 45 0 29 0;
#X connect 46 0 30 0;
#X connect 47 0 46 0;
