#N canvas 118 85 894 670 10;
#X declare -path else;
#X declare -path mrpeach;
#X obj 740 10 declare -path else;
#X obj 44 67 initmess listen 7777 169.254.68.52;
#X obj 65 191 print receive;
#X obj 452 562 netsend -u -b;
#X obj 68 127 netreceive -u -b;
#X obj 70 151 oscparse;
#X obj 180 6 tgl 25 0 empty empty empty 17 7 0 10 -262144 -1 -1 0 1
;
#X floatatom 173 243 5 0 0 0 - - -;
#X msg 268 342 format s;
#X obj 173 385 oscformat setar tempoTotal;
#X obj 173 342 any2symbol;
#X obj 173 317 t f b, f 14;
#X obj 452 265 bng 25 250 50 0 empty empty reset 17 7 0 10 -261234
-1 -1;
#X msg 452 297 1;
#X obj 452 321 t f b;
#X msg 484 346 format f;
#X obj 452 394 oscformat reset;
#X obj 53 543 initmess connect 169.254.68.51 5555;
#X obj 620 353 t a b;
#X obj 621 291 pack f f;
#X floatatom 582 257 5 0 0 1 porta - -;
#X obj 682 171 vradio 15 1 0 2 empty empty empty 0 -8 0 10 -262144
-1 -1 0;
#X text 700 170 12V;
#X text 700 186 24V;
#X obj 682 231 sel 0 1, f 12;
#X msg 682 250 12;
#X msg 716 250 24;
#X obj 740 30 declare -path mrpeach;
#X obj 620 401 oscformat setar tensao;
#X obj 541 180 hradio 15 1 0 8 empty empty empty 0 -8 0 10 -262144
-1 -1 2;
#X obj 541 200 + 1;
#X text 543 163 1;
#X text 558 163 2;
#X text 572 163 3;
#X text 587 163 4;
#X text 603 163 5;
#X text 618 163 6;
#X text 632 163 7;
#X text 647 163 8;
#X msg 620 331 list \$1 para \$2;
#X msg 647 372 format isi;
#X connect 1 0 4 0;
#X connect 4 0 5 0;
#X connect 5 0 2 0;
#X connect 7 0 11 0;
#X connect 8 0 9 0;
#X connect 9 0 3 0;
#X connect 10 0 9 0;
#X connect 11 0 10 0;
#X connect 11 1 8 0;
#X connect 12 0 13 0;
#X connect 13 0 14 0;
#X connect 14 0 16 0;
#X connect 14 1 15 0;
#X connect 15 0 16 0;
#X connect 16 0 3 0;
#X connect 17 0 3 0;
#X connect 18 0 28 0;
#X connect 18 1 40 0;
#X connect 19 0 39 0;
#X connect 20 0 19 0;
#X connect 21 0 24 0;
#X connect 24 0 25 0;
#X connect 24 1 26 0;
#X connect 25 0 19 1;
#X connect 26 0 19 1;
#X connect 28 0 3 0;
#X connect 29 0 30 0;
#X connect 30 0 20 0;
#X connect 39 0 18 0;
#X connect 40 0 28 0;
