#N canvas 118 85 1154 670 10;
#X declare -path else;
#X declare -path mrpeach;
#X obj 740 10 declare -path else;
#X obj 16 11 initmess listen 7777 169.254.68.52;
#X obj 37 135 print receive;
#X obj 452 562 netsend -u -b;
#X obj 40 71 netreceive -u -b;
#X obj 42 95 oscparse;
#X floatatom 791 279 5 0 0 0 - - -;
#X obj 75 282 bng 25 250 50 0 empty empty reset 17 7 0 10 -261234 -1
-1;
#X obj 53 543 initmess connect 169.254.68.51 5555;
#X obj 344 283 vradio 15 1 0 2 empty empty empty 0 -8 0 10 -262144
-1 -1 0;
#X text 362 282 12V;
#X text 362 298 24V;
#X obj 740 30 declare -path mrpeach;
#X obj 255 168 hradio 15 1 0 8 empty empty empty 0 -8 0 10 -262144
-1 -1 0;
#X text 257 151 1;
#X text 272 151 2;
#X text 286 151 3;
#X text 301 151 4;
#X text 317 151 5;
#X text 332 151 6;
#X text 346 151 7;
#X text 361 151 8;
#X text 59 249 funcaoReset;
#X text 271 242 setaTensao;
#X text 794 248 setaTempoTotal;
#X text 924 245 mensagemDeArmado;
#X text 1044 244 iniciaOperacao;
#N canvas 402 120 450 300 funcaoReset 0;
#X obj 154 34 inlet;
#X msg 194 99 1;
#X obj 194 123 t f b;
#X msg 226 148 format f;
#X obj 194 196 oscformat reset;
#X obj 184 247 outlet;
#X connect 0 0 1 0;
#X connect 1 0 2 0;
#X connect 2 0 4 0;
#X connect 2 1 3 0;
#X connect 3 0 4 0;
#X connect 4 0 5 0;
#X restore 75 324 pd funcaoReset;
#N canvas 445 180 450 403 setaTensao 0;
#X obj 50 18 inlet;
#X obj 215 20 inlet;
#X obj 177 224 t a b;
#X obj 178 162 pack f f;
#X floatatom 139 128 5 0 0 1 porta - -;
#X obj 239 102 sel 0 1, f 12;
#X msg 239 121 12;
#X msg 273 121 24;
#X obj 177 272 oscformat setar tensao;
#X obj 98 71 + 1;
#X msg 177 202 list \$1 para \$2;
#X msg 204 243 format isi;
#X obj 147 343 outlet;
#X connect 0 0 9 0;
#X connect 1 0 5 0;
#X connect 2 0 8 0;
#X connect 2 1 11 0;
#X connect 3 0 10 0;
#X connect 4 0 3 0;
#X connect 5 0 6 0;
#X connect 5 1 7 0;
#X connect 6 0 3 1;
#X connect 7 0 3 1;
#X connect 8 0 12 0;
#X connect 9 0 4 0;
#X connect 10 0 2 0;
#X connect 11 0 8 0;
#X restore 203 322 pd setaTensao;
#X f 24;
#N canvas 380 143 450 300 setaTempoTotal 0;
#X obj 128 35 inlet;
#X msg 270 131 format s;
#X obj 175 174 oscformat setar tempoTotal;
#X obj 175 131 any2symbol;
#X obj 175 106 t f b, f 14;
#X obj 165 245 outlet;
#X connect 0 0 4 0;
#X connect 1 0 2 0;
#X connect 2 0 5 0;
#X connect 3 0 2 0;
#X connect 4 0 3 0;
#X connect 4 1 1 0;
#X restore 791 320 pd setaTempoTotal;
#X text 486 88 setaEvento;
#N canvas 143 47 991 670 setaEvento 0;
#X obj 41 12 inlet;
#X obj 58 636 outlet;
#X obj 76 542 t a b;
#X obj 76 590 oscformat setar evento;
#X text 326 5 Evento 1 a 5;
#X floatatom 169 18 5 0 0 0 - - -;
#X msg 169 38 width \$1;
#X floatatom 230 18 5 0 0 0 - - -;
#X msg 230 38 height \$1;
#X obj 695 42 range.hsl 255.01 58 0 127 1 255 255 255 96 96 96 empty
empty;
#X obj 695 112 range.hsl 255.01 58 0 127 1 255 255 255 96 96 96 empty
empty;
#X obj 695 182 range.hsl 255.01 58 0 127 1 255 255 255 96 96 96 empty
empty;
#X obj 695 252 range.hsl 255.01 58 0 127 1 255 255 255 96 96 96 empty
empty;
#X obj 695 321 range.hsl 255.01 58 0 127 1 255 255 255 96 96 96 empty
empty;
#X msg 115 18 mode 1;
#X obj 361 97 range.hsl 255.01 58 0 50000 1 255 255 255 96 96 96 empty
empty;
#X obj 363 172 unpack;
#X floatatom 363 232 9 0 0 0 - - -;
#X floatatom 448 236 9 0 0 0 - - -;
#X msg 338 72 range 0 50000;
#X obj 232 152 + 1;
#X obj 275 320 pack2 1 1 0 0;
#X obj 275 341 unpack f f f f, f 35;
#X obj 220 384 v \$0-evento;
#X obj 297 384 v \$0-porta;
#X obj 380 384 v \$0-tempoInicio;
#X obj 487 384 v \$0-tempoFinal;
#X obj 76 440 v \$0-evento;
#X obj 153 440 v \$0-porta;
#X obj 236 440 v \$0-tempoInicio;
#X obj 343 440 v \$0-tempoFinal;
#X obj 32 92 route setaEvento;
#X obj 77 404 t b b b b;
#X obj 226 80 inlet;
#X obj 298 76 inlet;
#X obj 292 535 display;
#X obj 83 334 bng 15 250 50 0 empty empty empty 17 7 0 10 -262144 -1
-1;
#X msg 76 502 \$1 Porta \$2 tempoInicio \$3 tempoFinal \$4;
#X obj 406 365 i;
#X obj 486 363 i;
#X obj 367 200 i;
#X obj 447 198 i;
#X floatatom 32 393 5 0 0 0 - - -;
#X obj 76 481 pack f f s s, f 41;
#X obj 238 460 any2symbol;
#X obj 338 461 any2symbol;
#X msg 103 561 format isissss;
#X connect 0 0 31 0;
#X connect 2 0 3 0;
#X connect 2 1 46 0;
#X connect 3 0 1 0;
#X connect 5 0 6 0;
#X connect 6 0 9 0;
#X connect 7 0 8 0;
#X connect 8 0 9 0;
#X connect 14 0 9 0;
#X connect 15 0 16 0;
#X connect 16 0 40 0;
#X connect 16 1 41 0;
#X connect 17 0 21 2;
#X connect 18 0 21 3;
#X connect 19 0 15 0;
#X connect 20 0 21 1;
#X connect 21 0 22 0;
#X connect 22 0 23 0;
#X connect 22 1 24 0;
#X connect 22 2 38 0;
#X connect 22 3 39 0;
#X connect 27 0 43 0;
#X connect 28 0 43 1;
#X connect 29 0 44 0;
#X connect 30 0 45 0;
#X connect 31 0 32 0;
#X connect 32 0 27 0;
#X connect 32 1 28 0;
#X connect 32 2 29 0;
#X connect 32 3 30 0;
#X connect 33 0 20 0;
#X connect 33 0 16 0;
#X connect 34 0 16 0;
#X connect 36 0 32 0;
#X connect 37 0 2 0;
#X connect 37 0 35 0;
#X connect 38 0 25 0;
#X connect 39 0 26 0;
#X connect 40 0 17 0;
#X connect 41 0 18 0;
#X connect 42 0 27 0;
#X connect 43 0 37 0;
#X connect 44 0 43 2;
#X connect 45 0 43 3;
#X connect 46 0 3 0;
#X restore 457 265 pd setaEvento;
#X obj 504 125 range.hsl 255.01 58 0 50000 1 255 255 255 96 96 96 empty
empty;
#X msg 404 171 setaEvento;
#X text 275 120 Portas;
#X obj 550 200 unpack f f;
#X obj 550 220 i;
#X obj 607 219 i;
#X floatatom 550 241 9 0 0 0 - - -;
#X floatatom 609 239 9 0 0 0 - - -;
#X obj 1051 270 bng 35 250 50 0 empty empty Inicia 17 7 0 10 -204786
-1 -1;
#N canvas 830 120 450 300 iniciaOperacao 0;
#X obj 136 28 inlet;
#X msg 194 99 1;
#X obj 194 123 t f b;
#X obj 184 247 outlet;
#X obj 194 196 oscformat iniciar;
#X msg 226 148 format i;
#X connect 0 0 1 0;
#X connect 1 0 2 0;
#X connect 2 0 4 0;
#X connect 2 1 5 0;
#X connect 4 0 3 0;
#X connect 5 0 4 0;
#X restore 1051 310 pd iniciaOperacao;
#X obj 781 226 bng 15 250 50 0 empty empty empty 17 7 0 10 -262144
-1 -1;
#X msg 833 78 ARMAR;
#X obj 833 99 t b b b;
#N canvas 830 120 450 300 mensagemDeArmado 0;
#X obj 136 28 inlet;
#X obj 194 123 t f b;
#X obj 184 247 outlet;
#X msg 226 148 format i;
#X obj 194 196 oscformat armarNormae;
#X msg 164 78 1;
#X obj 136 49 route 1;
#X connect 0 0 6 0;
#X connect 1 0 4 0;
#X connect 1 1 3 0;
#X connect 3 0 4 0;
#X connect 4 0 2 0;
#X connect 5 0 1 0;
#X connect 6 0 5 0;
#X restore 934 330 pd mensagemDeArmado;
#X obj 939 273 tgl 35 0 empty empty empty 17 7 0 10 -262130 -1 -1 0
1;
#X msg 838 134 1;
#X connect 1 0 4 0;
#X connect 4 0 5 0;
#X connect 5 0 2 0;
#X connect 6 0 29 0;
#X connect 7 0 27 0;
#X connect 8 0 3 0;
#X connect 9 0 28 1;
#X connect 13 0 28 0;
#X connect 13 0 31 1;
#X connect 27 0 3 0;
#X connect 28 0 3 0;
#X connect 29 0 3 0;
#X connect 31 0 3 0;
#X connect 32 0 31 2;
#X connect 32 0 35 0;
#X connect 33 0 31 0;
#X connect 35 0 36 0;
#X connect 35 1 37 0;
#X connect 36 0 38 0;
#X connect 37 0 39 0;
#X connect 39 0 6 0;
#X connect 40 0 41 0;
#X connect 41 0 3 0;
#X connect 42 0 6 0;
#X connect 43 0 44 0;
#X connect 44 0 47 0;
#X connect 44 1 33 0;
#X connect 44 2 42 0;
#X connect 45 0 3 0;
#X connect 46 0 45 0;
#X connect 47 0 46 0;
