#N canvas 118 85 1154 670 10;
#X declare -path else;
#X declare -path mrpeach;
#X obj 740 10 declare -path else;
#X obj 16 11 initmess listen 7777 169.254.68.52;
#X obj 37 135 print receive;
#X obj 452 562 netsend -u -b;
#X obj 40 71 netreceive -u -b;
#X obj 42 95 oscparse;
#X floatatom 791 279 5 0 0 0 - - -;
#X obj 75 282 bng 25 250 50 0 empty empty reset 17 7 0 10 -261234 -1
-1;
#X obj 53 543 initmess connect 169.254.68.51 5555;
#X obj 344 283 vradio 15 1 0 2 empty empty empty 0 -8 0 10 -262144
-1 -1 0;
#X text 362 282 12V;
#X text 362 298 24V;
#X obj 740 30 declare -path mrpeach;
#X obj 203 292 hradio 15 1 0 8 empty empty empty 0 -8 0 10 -262144
-1 -1 2;
#X text 205 275 1;
#X text 220 275 2;
#X text 234 275 3;
#X text 249 275 4;
#X text 265 275 5;
#X text 280 275 6;
#X text 294 275 7;
#X text 309 275 8;
#X text 59 249 funcaoReset;
#X text 271 242 setaTensao;
#X text 794 248 setaTempoTotal;
#X text 924 245 mensagemDeArmado;
#X text 1044 244 iniciaOperacao;
#N canvas 402 120 450 300 funcaoReset 0;
#X obj 154 34 inlet;
#X msg 194 99 1;
#X obj 194 123 t f b;
#X msg 226 148 format f;
#X obj 194 196 oscformat reset;
#X obj 184 247 outlet;
#X connect 0 0 1 0;
#X connect 1 0 2 0;
#X connect 2 0 4 0;
#X connect 2 1 3 0;
#X connect 3 0 4 0;
#X connect 4 0 5 0;
#X restore 75 324 pd funcaoReset;
#N canvas 445 180 450 403 setaTensao 0;
#X obj 50 18 inlet;
#X obj 215 20 inlet;
#X obj 177 224 t a b;
#X obj 178 162 pack f f;
#X floatatom 139 128 5 0 0 1 porta - -;
#X obj 239 102 sel 0 1, f 12;
#X msg 239 121 12;
#X msg 273 121 24;
#X obj 177 272 oscformat setar tensao;
#X obj 98 71 + 1;
#X msg 177 202 list \$1 para \$2;
#X msg 204 243 format isi;
#X obj 147 343 outlet;
#X connect 0 0 9 0;
#X connect 1 0 5 0;
#X connect 2 0 8 0;
#X connect 2 1 11 0;
#X connect 3 0 10 0;
#X connect 4 0 3 0;
#X connect 5 0 6 0;
#X connect 5 1 7 0;
#X connect 6 0 3 1;
#X connect 7 0 3 1;
#X connect 8 0 12 0;
#X connect 9 0 4 0;
#X connect 10 0 2 0;
#X connect 11 0 8 0;
#X restore 203 322 pd setaTensao;
#X f 24;
#N canvas 380 143 450 300 setaTempoTotal 0;
#X obj 128 35 inlet;
#X msg 270 131 format s;
#X obj 175 174 oscformat setar tempoTotal;
#X obj 175 131 any2symbol;
#X obj 175 106 t f b, f 14;
#X obj 165 245 outlet;
#X connect 0 0 4 0;
#X connect 1 0 2 0;
#X connect 2 0 5 0;
#X connect 3 0 2 0;
#X connect 4 0 3 0;
#X connect 4 1 1 0;
#X restore 791 320 pd setaTempoTotal;
#X text 486 88 setaEvento;
#N canvas 143 47 753 670 setaEvento 1;
#X obj 41 12 inlet;
#X obj 63 633 outlet;
#X obj 99 477 t a b;
#X obj 99 525 oscformat setar evento;
#X msg 126 496 format isisisi;
#X obj 99 440 message \$1 Porta \$2 tempoInicio \$3 tempoFinal \$4
;
#X text 197 415 \$1 => número do Evento;
#X text 326 5 Evento 1 a 5;
#X floatatom 169 18 5 0 0 0 - - -;
#X msg 169 38 width \$1;
#X floatatom 230 18 5 0 0 0 - - -;
#X msg 230 38 height \$1;
#X obj 454 49 range.hsl 255.01 58 0 127 1 255 255 255 96 96 96 empty
empty;
#X obj 454 119 range.hsl 255.01 58 0 127 1 255 255 255 96 96 96 empty
empty;
#X obj 454 189 range.hsl 255.01 58 0 127 1 255 255 255 96 96 96 empty
empty;
#X obj 454 259 range.hsl 255.01 58 0 127 1 255 255 255 96 96 96 empty
empty;
#X obj 454 328 range.hsl 255.01 58 0 127 1 255 255 255 96 96 96 empty
empty;
#X msg 115 18 mode 1;
#X obj 119 101 range.hsl 255.01 58 0 127 1 255 255 255 96 96 96 empty
empty;
#X obj 119 164 unpack;
#X floatatom 92 231 5 0 0 0 - - -;
#X floatatom 171 226 5 0 0 0 - - -;
#X connect 2 0 3 0;
#X connect 2 1 4 0;
#X connect 4 0 3 0;
#X connect 5 0 2 0;
#X connect 8 0 9 0;
#X connect 9 0 12 0;
#X connect 10 0 11 0;
#X connect 11 0 12 0;
#X connect 17 0 12 0;
#X connect 18 0 19 0;
#X connect 19 0 20 0;
#X connect 19 1 21 0;
#X restore 457 265 pd setaEvento;
#X connect 1 0 4 0;
#X connect 4 0 5 0;
#X connect 5 0 2 0;
#X connect 6 0 29 0;
#X connect 7 0 27 0;
#X connect 8 0 3 0;
#X connect 9 0 28 1;
#X connect 13 0 28 0;
#X connect 27 0 3 0;
#X connect 28 0 3 0;
#X connect 29 0 3 0;
