#N canvas 52 23 1115 755 16;
#X declare -path ./abs;
#X declare -lib ofelia;
#X declare -path ./else;
#N canvas -181 -1036 1280 750 painel 0;
#X obj 5 3 cnv 15 1098 738 empty empty empty 20 12 0 14 -66577 -66577
0;
#X obj 1136 383 hradio 38 1 0 8 \$0-SELETOR_PORTAS_out empty PORTAS
0 -18 0 24 -203904 -4160 -1 0;
#X obj 1239 517 s \$0-Porta_ativa;
#X obj 977 18 bng 65 250 50 0 \$0-INICIAR_out \$0-INICIAR_in INICIAR
5 30 0 14 -54094 -1 -228856;
#X obj 1138 453 vradio 30 1 0 2 \$0-SELETOR_TENSAO_out \$0-SELETOR_TENSAO_in
empty 0 -8 0 10 -261234 -1 -1 0;
#X obj 32 574 bng 50 250 50 0 \$0-reset_out \$0-reset_in RESET 5 24
0 14 -235292 -1 -1;
#X obj 1154 402 cnv 1 1 1 empty empty 1 -5 0 0 18 -33289 -1 0;
#X obj 1193 402 cnv 1 1 1 empty empty 2 -6 0 0 18 -33289 -1 0;
#X obj 1231 401 cnv 1 1 1 empty empty 3 -5 1 0 18 -262144 -1 0;
#X obj 1268 404 cnv 1 1 1 empty empty 4 -5 -2 0 18 -262144 -1 0;
#X obj 1306 401 cnv 1 1 1 empty empty 5 -4 1 0 18 -33289 -1 0;
#X obj 1341 402 cnv 1 1 1 empty empty 6 -1 0 0 18 -33289 -1 0;
#X obj 1384 402 cnv 1 1 1 empty empty 7 -5 0 0 18 -1 -1 0;
#X obj 1418 402 cnv 1 1 1 empty empty 8 -2 0 0 18 -1 -1 0;
#X obj 1174 455 cnv 2 2 2 empty empty 12V 0 12 0 22 -66577 -191407
0;
#X obj 1174 489 cnv 2 2 2 empty empty 24V 0 12 0 22 -66577 -191407
0;
#X obj 522 102 range.hsl 448 50 0 45000 1 90 90 90 0 116 217 empty
empty;
#X obj 521 82 cnv 2 2 2 empty empty PORTA_1 0 12 0 18 -66577 -228856
0;
#X obj 1238 485 r \$0-SELETOR_PORTAS_out;
#X obj 522 181 range.hsl 448 50 0 45000 1 90 90 90 0 116 217 empty
empty;
#X obj 521 161 cnv 2 2 2 empty empty PORTA_2 0 12 0 18 -66577 -228856
0;
#X obj 522 262 range.hsl 448 50 0 45000 1 90 90 90 0 116 217 empty
empty;
#X obj 521 242 cnv 2 2 2 empty empty PORTA_3 0 12 0 18 -66577 -228856
0;
#X obj 522 341 range.hsl 448 50 0 45000 1 90 90 90 0 116 217 empty
empty;
#X obj 521 321 cnv 2 2 2 empty empty PORTA_4 0 12 0 18 -66577 -228856
0;
#X obj 522 419 range.hsl 448 50 0 45000 1 90 90 90 0 116 217 empty
empty;
#X obj 521 399 cnv 2 2 2 empty empty PORTA_5 0 12 0 18 -66577 -228856
0;
#X obj 522 498 range.hsl 448 50 0 45000 1 90 90 90 0 116 217 empty
empty;
#X obj 521 478 cnv 2 2 2 empty empty PORTA_6 0 12 0 18 -66577 -228856
0;
#X obj 522 579 range.hsl 448 50 0 45000 1 90 90 90 0 116 217 empty
empty;
#X obj 521 559 cnv 2 2 2 empty empty PORTA_7 0 12 0 18 -66577 -228856
0;
#X obj 522 658 range.hsl 448 50 0 45000 1 90 90 90 0 116 217 empty
empty;
#X obj 521 638 cnv 2 2 2 empty empty PORTA_8 0 12 0 18 -66577 -228856
0;
#X obj 43 178 cnv 4 100 60 empty empty NORMAE_v0.9-3 8 12 0 29 -66577
-228856 0;
#X obj 27 22 pic 0 ./data/logoMiragem.gif empty empty 0 0;
#X obj 404 113 nbx 6 30 0 75000 0 0 \$0_Porta1_min_out \$0_Porta1_min_in
empty 0 -8 0 18 -99865 -228856 -228856 0 256;
#X obj 975 111 nbx 6 30 0 75000 0 0 \$0_Porta1_max_out \$0_Porta1_max_in
empty 0 -8 0 18 -99865 -228856 -228856 0 256;
#X obj 404 192 nbx 6 30 0 75000 0 0 \$0_Porta2_min_out \$0_Porta2_min_in
empty 0 -8 0 18 -99865 -228856 -228856 0 256;
#X obj 975 190 nbx 6 30 0 75000 0 0 \$0_Porta2_max_out \$0_Porta2_max_in
empty 0 -8 0 18 -99865 -228856 -228856 0 256;
#X obj 404 273 nbx 6 30 0 75000 0 0 \$0_Porta3_min_out \$0_Porta3_min_in
empty 0 -8 0 18 -99865 -228856 -228856 0 256;
#X obj 975 271 nbx 6 30 0 75000 0 0 \$0_Porta3_max_out \$0_Porta3_max_in
empty 0 -8 0 18 -99865 -228856 -228856 0 256;
#X obj 404 352 nbx 6 30 0 75000 0 0 \$0_Porta4_min_out \$0_Porta4_min_in
empty 0 -8 0 18 -99865 -228856 -228856 0 256;
#X obj 975 350 nbx 6 30 0 75000 0 0 \$0_Porta4_max_out \$0_Porta4_max_in
empty 0 -8 0 18 -99865 -228856 -228856 0 256;
#X obj 404 431 nbx 6 30 0 75000 0 0 \$0_Porta5_min_out \$0_Porta5_min_in
empty 0 -8 0 18 -99865 -228856 -228856 0 256;
#X obj 975 429 nbx 6 30 0 75000 0 0 \$0_Porta5_max_out \$0_Porta5_max_in
empty 0 -8 0 18 -99865 -228856 -228856 0 256;
#X obj 404 510 nbx 6 30 0 75000 0 0 \$0_Porta6_min_out \$0_Porta6_min_in
empty 0 -8 0 18 -99865 -228856 -228856 0 256;
#X obj 975 508 nbx 6 30 0 75000 0 0 \$0_Porta6_max_out \$0_Porta6_max_in
empty 0 -8 0 18 -99865 -228856 -228856 0 256;
#X obj 404 591 nbx 6 30 0 75000 0 0 \$0_Porta7_min_out \$0_Porta7_min_in
empty 0 -8 0 18 -99865 -228856 -228856 0 256;
#X obj 975 589 nbx 6 30 0 75000 0 0 \$0_Porta7_max_out \$0_Porta7_max_in
empty 0 -8 0 18 -99865 -228856 -228856 0 256;
#X obj 404 670 nbx 6 30 0 75000 0 0 \$0_Porta8_min_out \$0_Porta8_min_in
empty 0 -8 0 18 -99865 -228856 -228856 0 256;
#X obj 975 668 nbx 6 30 0 75000 0 0 \$0_Porta8_max_out \$0_Porta8_max_in
empty 0 -8 0 18 -99865 -228856 -228856 0 256;
#N canvas 334 107 601 522 controlador_de_tempos_na_Interface 0;
#X obj 343 136 controlaTemposPorta 1;
#X obj 137 32 initmess \$0;
#X obj 343 117 pipe 100;
#X obj 166 94 t f f f f f f f f, f 30;
#X obj 317 157 pipe 100;
#X obj 317 176 controlaTemposPorta 2;
#X obj 292 197 pipe 100;
#X obj 267 237 pipe 100;
#X obj 241 277 pipe 100;
#X obj 216 317 pipe 100;
#X obj 191 357 pipe 100;
#X obj 166 397 pipe 100;
#X obj 292 216 controlaTemposPorta 3;
#X obj 267 256 controlaTemposPorta 4;
#X obj 241 296 controlaTemposPorta 5;
#X obj 216 336 controlaTemposPorta 6;
#X obj 191 376 controlaTemposPorta 7;
#X obj 166 416 controlaTemposPorta 8;
#X connect 1 0 3 0;
#X connect 2 0 0 0;
#X connect 3 0 11 0;
#X connect 3 1 10 0;
#X connect 3 2 9 0;
#X connect 3 3 8 0;
#X connect 3 4 7 0;
#X connect 3 5 6 0;
#X connect 3 6 4 0;
#X connect 3 7 2 0;
#X connect 4 0 5 0;
#X connect 6 0 12 0;
#X connect 7 0 13 0;
#X connect 8 0 14 0;
#X connect 9 0 15 0;
#X connect 10 0 16 0;
#X connect 11 0 17 0;
#X restore 1136 115 pd controlador_de_tempos_na_Interface;
#X obj 1651 127 cnv 1 1 470 empty empty empty 20 12 0 14 -66577 -66577
0;
#N canvas 285 144 680 484 setaTensao 0;
#X obj 161 434 s \$0-toNormae;
#X obj 85 68 r \$0-Porta_ativa;
#X obj 204 68 r \$0-Tensao;
#X obj 19 16 note 425 14 Menlo empty 0 0 0 0 0 255 255 255 0 0 setaTensao
;
#X obj 194 285 t a b;
#X floatatom 120 139 5 0 0 1 porta - -;
#X obj 239 121 sel 0 1, f 12;
#X msg 239 140 12;
#X msg 273 140 24;
#X obj 194 333 oscformat setar tensao;
#X obj 120 118 + 1;
#X msg 194 263 list \$1 para \$2;
#X msg 221 304 format isi;
#X obj 194 224 pack2 1 12;
#X obj 470 92 s \$0-Tensao;
#X obj 469 140 r \$0-setTensao;
#X obj 469 161 s \$0-SELETOR_TENSAO_in;
#X obj 470 69 r \$0-SELETOR_TENSAO_out;
#X connect 1 0 10 0;
#X connect 2 0 6 0;
#X connect 4 0 9 0;
#X connect 4 1 12 0;
#X connect 5 0 13 0;
#X connect 6 0 7 0;
#X connect 6 1 8 0;
#X connect 7 0 13 1;
#X connect 8 0 13 1;
#X connect 9 0 0 0;
#X connect 10 0 5 0;
#X connect 11 0 4 0;
#X connect 12 0 9 0;
#X connect 13 0 11 0;
#X connect 15 0 16 0;
#X connect 17 0 14 0;
#X restore 1236 456 pd setaTensao;
#X obj 696 151 nbx 6 20 0 75000 0 0 \$0_Porta1_tempo_out \$0_Porta1_tempo_in
empty 0 -8 0 18 -128992 -228856 -228856 0 256;
#X obj 696 231 nbx 6 20 0 75000 0 0 \$0_Porta2_tempo_out \$0_Porta2_tempo_in
empty 0 -8 0 18 -128992 -228856 -228856 0 256;
#X obj 696 312 nbx 6 20 0 75000 0 0 \$0_Porta3_tempo_out \$0_Porta3_tempo_in
empty 0 -8 0 18 -128992 -228856 -228856 0 256;
#X obj 696 391 nbx 6 20 0 75000 0 0 \$0_Porta4_tempo_out \$0_Porta4_tempo_in
empty 0 -8 0 18 -128992 -228856 -228856 0 256;
#X obj 696 469 nbx 6 20 0 75000 0 0 \$0_Porta5_tempo_out \$0_Porta5_tempo_in
empty 0 -8 0 18 -128992 -228856 -228856 0 256;
#X obj 696 548 nbx 6 20 0 75000 0 0 \$0_Porta6_tempo_out \$0_Porta6_tempo_in
empty 0 -8 0 18 -128992 -228856 -228856 0 256;
#X obj 696 629 nbx 6 20 0 75000 0 0 \$0_Porta7_tempo_out \$0_Porta7_tempo_in
empty 0 -8 0 18 -128992 -228856 -228856 0 256;
#X obj 696 708 nbx 6 20 0 75000 0 0 \$0_Porta8_tempo_out \$0_Porta8_tempo_in
empty 0 -8 0 18 -128992 -228856 -228856 0 256;
#X obj 1514 53 declare -path ./abs;
#X obj 1514 16 declare -lib ofelia;
#N canvas 357 141 522 362 setaEvento 0;
#N canvas 143 47 991 670 setaEvento 0;
#X obj 41 12 inlet;
#X obj 62 612 outlet;
#X obj 70 488 t a b;
#X obj 70 536 oscformat setar evento;
#X obj 153 324 v \$0-evento;
#X obj 236 324 v \$0-porta;
#X obj 313 324 v \$0-tempoInicio;
#X obj 420 324 v \$0-tempoFinal;
#X obj 70 386 v \$0-evento;
#X obj 151 386 v \$0-porta;
#X obj 232 386 v \$0-tempoInicio;
#X obj 341 386 v \$0-tempoFinal;
#X obj 71 350 t b b b b;
#X msg 70 448 \$1 Porta \$2 tempoInicio \$3 tempoFinal \$4;
#X obj 313 306 i;
#X obj 420 306 i;
#X obj 70 427 pack f f s s, f 41;
#X obj 232 406 any2symbol;
#X obj 341 407 any2symbol;
#X msg 97 507 format isissss;
#X obj 549 55 r \$0-eventoNaPorta;
#X obj 704 129 unpack f f f, f 33;
#X text 703 110 Porta;
#X text 775 111 tempoInicial;
#X text 887 111 tempoFinal;
#X floatatom 704 150 5 0 0 0 - - -;
#X floatatom 801 149 5 0 0 0 - - -;
#X floatatom 899 149 5 0 0 0 - - -;
#X msg 71 98 setaEvento;
#X obj 641 371 ofelia d \$0-memoriaDeEventos;
#X obj 656 345 initmess read -c ./scripts/memoria_de_eventos.lua;
#X obj 704 403 display;
#X obj 682 14 array define -yrange 0 45000 \$0-temposIniciais 8;
#X obj 682 35 array define -yrange 0 45000 \$0-temposFinais 8;
#X obj 623 223 array set \$0-temposIniciais;
#X obj 565 102 t a a a, f 20;
#X msg 623 151 \$2 \$1;
#X obj 623 172 unpack;
#X obj 702 203 - 1;
#X obj 565 248 unpack;
#X obj 644 279 - 1;
#X msg 565 227 \$3 \$1;
#X obj 565 299 array set \$0-temposFinais, f 27;
#X text 743 259 Por agora funciona \, mas será necessário implementar
suporte a multiplos Eventos na mesma Porta., f 33;
#X text 777 314 Criar script em Lua pra isso;
#X obj 153 276 unpack f f f f, f 36;
#X obj 128 208 initmess read -c ./scripts/setaEventos.lua;
#X obj 242 84 metro 150;
#X obj 242 65 initmess 1;
#X obj 242 104 spigot 0, f 13;
#X obj 71 235 ofelia d -c13 \$0-setaEventos;
#X msg 242 125 timer;
#X obj 234 483 print debug_setaEvento;
#X obj 236 254 s \$0-se_transmitindo_eventos;
#X obj 317 83 r \$0-se_transmitindo_eventos;
#X obj 71 73 sel 1;
#X connect 0 0 55 0;
#X connect 2 0 3 0;
#X connect 2 1 19 0;
#X connect 3 0 1 0;
#X connect 8 0 16 0;
#X connect 9 0 16 1;
#X connect 10 0 17 0;
#X connect 11 0 18 0;
#X connect 12 0 8 0;
#X connect 12 1 9 0;
#X connect 12 2 10 0;
#X connect 12 3 11 0;
#X connect 13 0 2 0;
#X connect 14 0 6 0;
#X connect 15 0 7 0;
#X connect 16 0 13 0;
#X connect 17 0 16 2;
#X connect 18 0 16 3;
#X connect 19 0 3 0;
#X connect 20 0 35 0;
#X connect 21 0 25 0;
#X connect 21 1 26 0;
#X connect 21 2 27 0;
#X connect 28 0 50 0;
#X connect 29 0 31 0;
#X connect 30 0 29 0;
#X connect 35 0 41 0;
#X connect 35 1 36 0;
#X connect 35 2 21 0;
#X connect 36 0 37 0;
#X connect 37 0 34 0;
#X connect 37 1 38 0;
#X connect 38 0 34 1;
#X connect 39 0 42 0;
#X connect 39 1 40 0;
#X connect 40 0 42 1;
#X connect 41 0 39 0;
#X connect 45 0 4 0;
#X connect 45 1 5 0;
#X connect 45 2 14 0;
#X connect 45 3 15 0;
#X connect 46 0 50 0;
#X connect 47 0 49 0;
#X connect 48 0 47 0;
#X connect 49 0 51 0;
#X connect 50 0 12 0;
#X connect 50 1 45 0;
#X connect 50 2 53 0;
#X connect 51 0 50 0;
#X connect 54 0 49 1;
#X connect 55 0 28 0;
#X restore 123 123 pd setaEvento;
#X obj 112 153 s \$0-toNormae;
#X obj 74 60 r \$0-setaEvento;
#X obj 13 13 note 425 14 Menlo empty 0 0 0 0 0 255 255 255 0 0 setaEvento
;
#X text 90 179 não está terminado aqui \, para verificar onde está
setando as variáveis de tempo inicial e tempo final abrir:, f 24
;
#X text 87 245 [pd painel] -> [pd controlador_de_tempos_na_interface]
;
#X text 87 262 -> [controleTempos Porta \$1];
#X connect 0 0 1 0;
#X connect 2 0 0 0;
#X restore 1303 236 pd setaEvento;
#N canvas 473 136 546 457 setaTempoTotal 0;
#X obj 163 96 bng 45 250 50 0 empty empty tempoTotal 17 7 0 10 -228856
-1 -1;
#X obj 152 389 s \$0-toNormae;
#X obj 163 261 v \$0-tempoTotal;
#X obj 163 67 r \$0-setaTempoTotal;
#X obj 18 14 note 425 14 Menlo empty 0 0 0 0 0 255 255 255 0 0 setaTempoTotal
;
#X msg 258 309 format s;
#X obj 163 352 oscformat setar tempoTotal;
#X obj 163 309 any2symbol;
#X obj 163 284 t f b, f 14;
#X obj 207 165 buffer \$0-temposFinais;
#X obj 207 186 sort -1;
#X obj 207 207 list split 1;
#X obj 207 228 list trim;
#X obj 163 146 t b b;
#X connect 0 0 13 0;
#X connect 2 0 8 0;
#X connect 3 0 0 0;
#X connect 5 0 6 0;
#X connect 6 0 1 0;
#X connect 7 0 6 0;
#X connect 8 0 7 0;
#X connect 8 1 5 0;
#X connect 9 0 10 0;
#X connect 10 0 11 0;
#X connect 11 0 12 0;
#X connect 12 0 2 0;
#X connect 13 0 2 0;
#X connect 13 1 9 0;
#X restore 1303 217 pd setaTempoTotal;
#N canvas 409 151 450 440 mensagemDeArmando 0;
#X obj 171 130 tgl 35 0 empty empty empty 17 7 0 10 -262130 -1 -1 0
1;
#X obj 161 373 s \$0-toNormae;
#X obj 150 75 r \$0-mensagemDeArmado;
#X obj 20 18 note 425 14 Menlo empty 0 0 0 0 0 255 255 255 0 0 mensagemDeArmado
;
#X obj 173 234 t f b;
#X msg 205 259 format i;
#X obj 173 307 oscformat armarNormae;
#X msg 173 209 1;
#X obj 173 180 route 1;
#X connect 0 0 8 0;
#X connect 2 0 0 0;
#X connect 4 0 6 0;
#X connect 4 1 5 0;
#X connect 5 0 6 0;
#X connect 6 0 1 0;
#X connect 7 0 4 0;
#X connect 8 0 7 0;
#X restore 1303 255 pd mensagemDeArmando;
#N canvas 192 187 642 520 comunicaçãoOSC 0;
#X obj 227 310 initmess listen 7777 169.254.68.52;
#X obj 329 410 print receive;
#X obj 260 174 netsend -u -b;
#X obj 251 370 netreceive -u -b;
#X obj 253 394 oscparse;
#X obj 287 148 initmess connect 169.254.68.51 5555;
#X obj 218 80 r \$0-toNormae;
#X obj 198 267 note 425 16 Menlo empty 0 0 0 0 0 255 255 255 0 0 Recebe
OSC de Normae;
#X obj 192 47 note 425 16 Menlo empty 0 0 0 0 0 255 255 255 0 0 Envia
OSC para Normae;
#X obj 245 453 s \$0-normae_out;
#X obj 253 415 list trim;
#X obj 260 128 t a b;
#X floatatom 260 199 5 0 0 0 - - -;
#X msg 401 174 disconnect;
#X connect 0 0 3 0;
#X connect 2 0 12 0;
#X connect 3 0 4 0;
#X connect 4 0 1 0;
#X connect 4 0 10 0;
#X connect 5 0 2 0;
#X connect 6 0 11 0;
#X connect 10 0 9 0;
#X connect 11 0 2 0;
#X connect 11 1 5 0;
#X connect 13 0 2 0;
#X restore 1136 60 pd comunicaçãoOSC;
#N canvas 312 99 584 618 ToDo 0;
#X text 44 23 ToDo:;
#X text 54 175 - implementar controladoraPronta() no arduino;
#X text 64 311 - envia mensagem OSC para interface para ativar os botões
de reset \, armar e iniciar;
#X text 54 345 - implementar controle de comportamento do botão armar
;
#X text 54 405 - implementar controle de comportamento do botão iniciar
;
#X text 55 45 - implementar controle de comportamento do botão reset
;
#X text 65 65 - botão reset fica ativo apenas se receber mensagem
de controladoraPronta() da Normae;
#X text 64 422 - apenas habilitar o botão iniciar quando Normae estiver
armada;
#X text 44 145 Feito:;
#X text 64 195 - envia mensagem OSC para interface quando inicialização
teminou: /controladoraPronta/1;
#X text 54 235 - implementar normaeOperando no arduino;
#X text 64 255 - envia mensagem OSC para interface quando requerida
indicando se a controladora Normae está pronta para uso:;
#X text 81 281 Enviar OSC para normae perguntando: /normarOperando
;
#X text 81 295 resposta: /controladoraPronta/int(0-1);
#X text 64 362 - quando estiver armando \, desabilitar o botão até
terminar o envio de eventos;
#X restore 1484 532 pd ToDo;
#N canvas 410 79 450 419 botao_reset 0;
#X obj 146 325 s \$0-toNormae;
#X obj 28 19 note 425 14 Menlo empty 0 0 0 0 0 255 255 255 0 0 funcaoReset
;
#X msg 166 164 1;
#X obj 166 188 t f b;
#X msg 198 213 format f;
#X obj 166 261 oscformat reset;
#X obj 120 79 r \$0-reset_out;
#X obj 166 139 spigot 0;
#X obj 211 120 r \$0-ativar_botões;
#X connect 2 0 3 0;
#X connect 3 0 5 0;
#X connect 3 1 4 0;
#X connect 4 0 5 0;
#X connect 5 0 0 0;
#X connect 6 0 7 0;
#X connect 7 0 2 0;
#X connect 8 0 7 1;
#X restore 1137 275 pd botao_reset;
#X text 1483 556 Esteban Viveros 2021;
#X obj 1495 570 openfile https://github.com/emviveros/MIRAGEM_Normae
-h repositório Normae;
#N canvas 682 45 526 300 comportamento_dos_botões 0;
#X obj 87 96 r \$0-ativar_botões;
#N canvas 489 170 595 425 controle_de_disponibilidade_de_botões 0
;
#X obj 99 43 r \$0-normae_out;
#X obj 127 90 route controladoraPronta;
#X obj 127 109 tgl 25 0 empty empty empty 17 7 0 10 -228856 -1 -1 1
1;
#N canvas 518 198 606 557 pergunta_por_estado_de_operação 0;
#X obj 123 20 inlet;
#X obj 193 444 s \$0-toNormae;
#X obj 203 355 t f b;
#X msg 235 380 format i;
#X msg 203 336 1;
#X obj 78 93 initmess 1;
#X obj 98 246 spigot 0, f 13;
#X obj 78 112 metro 3200;
#X obj 203 408 oscformat normaeOperando;
#X obj 78 506 outlet;
#X text 286 444 <-- envia requisição pra Normae;
#X text 124 506 <-- bang se não estiver conectada;
#X text 341 184 se \$0-estado_operacao_Normae = 0 \, ativa persistência
de verificação de conexão, f 33;
#X obj 173 186 v \$0-estado_operacao_Normae;
#X obj 173 207 == 0;
#X obj 173 123 initmess 0;
#X obj 173 144 pipe 500;
#X obj 62 261 bng 15 250 50 0 empty empty empty 17 7 0 10 -262144 -1
-1;
#X obj 58 155 bng 15 250 50 0 empty empty empty 17 7 0 10 -262144 -1
-1;
#X obj 98 309 t b b, f 18;
#X text 185 249 <-- Passa apenas se não estiver conectada;
#X obj 98 161 t b b b, f 10;
#X obj 261 285 display;
#X connect 0 0 13 0;
#X connect 2 0 8 0;
#X connect 2 1 3 0;
#X connect 3 0 8 0;
#X connect 4 0 2 0;
#X connect 5 0 7 0;
#X connect 6 0 17 0;
#X connect 6 0 19 0;
#X connect 7 0 18 0;
#X connect 7 0 21 0;
#X connect 8 0 1 0;
#X connect 13 0 14 0;
#X connect 13 0 22 0;
#X connect 14 0 6 1;
#X connect 15 0 16 0;
#X connect 16 0 13 0;
#X connect 19 0 9 0;
#X connect 19 1 4 0;
#X connect 21 0 6 0;
#X connect 21 2 13 0;
#X restore 202 202 pd pergunta_por_estado_de_operação;
#X text 281 92 <-- recebe 0-1 se normae está operacional;
#X msg 202 223 0;
#X obj 127 202 sel 1;
#X msg 127 223 1;
#X obj 167 272 tgl 25 0 empty empty empty 17 7 0 10 -228856 -1 -1 1
1;
#X obj 147 334 s \$0-ativar_botões;
#X obj 127 148 t f f, f 13;
#X connect 0 0 1 0;
#X connect 1 0 2 0;
#X connect 2 0 10 0;
#X connect 3 0 5 0;
#X connect 5 0 8 0;
#X connect 6 0 7 0;
#X connect 7 0 8 0;
#X connect 8 0 9 0;
#X connect 10 0 6 0;
#X connect 10 1 3 0;
#X restore 13 10 pd controle_de_disponibilidade_de_botões;
#X obj 365 57 s \$0-ativar_botões;
#X obj 365 35 tgl 15 0 empty empty empty 17 7 0 10 -262144 -1 -1 0
1;
#X obj 105 135 t f f f, f 42;
#N canvas 292 170 643 379 cor_botãoRESET 0;
#X obj 78 35 inlet;
#X text 138 146 back;
#X text 183 146 front;
#X msg 94 164 color #363636 #000000 #dcdcdc;
#X text 233 146 label;
#X text 100 129 botão desativado;
#X obj 81 331 s \$0-reset_in;
#X obj 94 88 sel 0 1, f 80;
#X text 376 146 back;
#X text 421 146 front;
#X text 471 146 label;
#X text 338 129 botão ativado;
#X msg 332 164 color #e6736e #000000 #000000;
#X connect 0 0 7 0;
#X connect 3 0 6 0;
#X connect 7 0 3 0;
#X connect 7 1 12 0;
#X connect 12 0 6 0;
#X restore 105 170 pd cor_botãoRESET;
#N canvas 9 123 999 555 cor_botãoARMAR 0;
#X obj 69 15 inlet;
#X text 139 406 back;
#X text 184 406 front;
#X msg 95 424 color #363636 #000000 #dcdcdc;
#X text 234 406 label;
#X obj 95 348 sel 0 1, f 80;
#X text 377 406 back;
#X text 422 406 front;
#X text 471 406 label;
#X msg 333 424 color #fff523 #000000 #000000;
#X obj 82 491 s \$0-ARMAR_in;
#X obj 95 200 &&, f 13;
#X obj 114 36 r \$0-botaoARMAR;
#X obj 95 111 f;
#X text 648 61 -->[pd entrada_nbx_tempo]-->;
#X text 798 86 -->[pd send \$0-botaoARMAR];
#X text 648 74 -->[pd entrada_nbx_max] -->;
#X text 648 49 -->[pd entrada_nbx_min] -->;
#X text 216 36 <-- em [pd controlador_de_tempos_na_Interface]-->[controlaTempoPorta
\$1]-->, f 79;
#X text 177 201 --->;
#X text 209 190 se Normae enviou mensagem controladoraPronta 1 e houver
alguma entrada nas caixas de número \, muda a cor do botão ARMAR
para botão ativado \, senão cor do botão ARMAR vai para desativado
, f 62;
#X text 101 379 botão ARMAR desativado;
#X text 339 379 botão ARMAR ativado;
#X obj 121 70 t b f f, f 17;
#X obj 213 135 s \$0-ARMAR_in;
#N canvas 600 195 567 380 controle_de_retorno_gráfico_do_toggle_ARMAR
0;
#X msg 91 282 set 0;
#X obj 71 133 r \$0-ARMAR_out;
#X obj 203 64 r \$0-ativar_botões;
#X obj 196 135 &&, f 8;
#X obj 196 115 f;
#X obj 91 211 spigot 0, f 18;
#X obj 196 159 == 0;
#X obj 142 22 inlet;
#X obj 83 338 outlet;
#X text 341 24 se não houve entrada de tempo nas caixas de número
ou Normae não está pronta \, o seletor ARMAR não seta para 1, f
27;
#X obj 213 95 t b f f, f 10;
#X obj 270 188 sel 0;
#X obj 270 215 r \$0-botaoARMAR;
#X obj 270 236 sel 0;
#X text 310 186 controladoraPronta = 0;
#X text 313 271 ou tb se a caixa de tempo mudou de valor tb desativa
botão ARMAR, f 25;
#X text 312 230 se nenhuma entrada de tempo foi feita desativa botão
ARMAR, f 25;
#X obj 91 232 sel 0;
#X connect 0 0 8 0;
#X connect 1 0 5 0;
#X connect 2 0 10 0;
#X connect 3 0 6 0;
#X connect 4 0 3 0;
#X connect 5 0 17 0;
#X connect 6 0 5 1;
#X connect 7 0 4 0;
#X connect 10 0 4 0;
#X connect 10 1 3 1;
#X connect 10 2 11 0;
#X connect 11 0 0 0;
#X connect 12 0 13 0;
#X connect 13 0 0 0;
#X connect 17 0 0 0;
#X restore 220 91 pd controle_de_retorno_gráfico_do_toggle_ARMAR;
#X obj 95 221 t f f;
#X obj 123 245 s \$0-atividadeBotaoARMAR;
#N canvas 615 152 450 459 pisca_enquanto_estiver_armando 0;
#X obj 266 77 r \$0-estadoBotaoINICIAR;
#X obj 45 13 inlet;
#X obj 45 367 outlet;
#X obj 94 264 t b b, f 9;
#X obj 68 77 r \$0-ARMAR_out;
#X obj 166 77 r \$0-botaoARMAR;
#X obj 94 134 f;
#X obj 94 155 &&, f 7;
#X obj 166 104 t b f;
#X obj 94 186 f;
#X obj 94 207 &&, f 12;
#X obj 266 131 t b f;
#X obj 266 98 == 0;
#X msg 94 313 0;
#X msg 145 313 1;
#X obj 94 237 metro 900;
#X obj 145 286 del 400;
#X connect 0 0 12 0;
#X connect 1 0 2 0;
#X connect 3 0 13 0;
#X connect 3 1 16 0;
#X connect 4 0 6 0;
#X connect 5 0 8 0;
#X connect 6 0 7 0;
#X connect 7 0 9 0;
#X connect 8 0 6 0;
#X connect 8 1 7 1;
#X connect 9 0 10 0;
#X connect 10 0 15 0;
#X connect 11 0 9 0;
#X connect 11 1 10 1;
#X connect 12 0 11 0;
#X connect 13 0 2 0;
#X connect 14 0 2 0;
#X connect 15 0 3 0;
#X connect 16 0 14 0;
#X restore 95 292 pd pisca_enquanto_estiver_armando;
#X connect 0 0 13 0;
#X connect 3 0 10 0;
#X connect 5 0 3 0;
#X connect 5 1 9 0;
#X connect 9 0 10 0;
#X connect 11 0 26 0;
#X connect 12 0 23 0;
#X connect 13 0 11 0;
#X connect 23 0 13 0;
#X connect 23 1 11 1;
#X connect 23 2 25 0;
#X connect 25 0 24 0;
#X connect 26 0 28 0;
#X connect 26 1 27 0;
#X connect 28 0 5 0;
#X restore 229 170 pd cor_botãoARMAR;
#N canvas 186 49 643 559 cor_botãoINICIAR 0;
#X obj 55 27 inlet;
#X text 138 416 back;
#X text 183 416 front;
#X msg 94 434 color #363636 #000000 #dcdcdc;
#X text 233 416 label;
#X text 100 399 botão desativado;
#X obj 94 358 sel 0 1, f 80;
#X text 376 416 back;
#X text 421 416 front;
#X text 471 416 label;
#X text 338 399 botão ativado;
#X obj 81 511 s \$0-INICIAR_in;
#X msg 332 434 color #4adb42 #000000 #000000;
#X obj 100 56 r \$0-ARMAR_out;
#X text 193 57 <-- saída do Toggle ARMAR;
#X text 93 29 \$0-ativar_botoes;
#X text 266 107 Disponibiliza uso do botão INICIAR se:;
#X text 337 127 - Saída do botão ARMAR = 1 (\$0-ARMAR_out);
#X text 337 144 - controladoraPronta = 1 (\$0-ativar_botoes);
#X obj 141 84 r \$0-botaoARMAR;
#X obj 121 129 f;
#X msg 141 105 0;
#X obj 94 168 == 2;
#X obj 94 150 pack2;
#X obj 121 298 s \$0-estadoBotaoINICIAR;
#X obj 94 251 &&, f 14;
#X text 185 251 0 quando ARMAR é iniciado e 1 quando termina de armar
;
#X obj 148 162 r \$0-se_transmitindo_eventos;
#X obj 148 183 == 0;
#X obj 94 230 f;
#X obj 148 204 t b f;
#X obj 94 272 t f f;
#X connect 0 0 23 0;
#X connect 3 0 11 0;
#X connect 6 0 3 0;
#X connect 6 1 12 0;
#X connect 12 0 11 0;
#X connect 13 0 20 0;
#X connect 19 0 21 0;
#X connect 20 0 23 1;
#X connect 21 0 20 0;
#X connect 22 0 29 0;
#X connect 23 0 22 0;
#X connect 25 0 31 0;
#X connect 27 0 28 0;
#X connect 28 0 30 0;
#X connect 29 0 25 0;
#X connect 30 0 29 0;
#X connect 30 1 25 1;
#X connect 31 0 6 0;
#X connect 31 1 24 0;
#X restore 354 170 pd cor_botãoINICIAR;
#X connect 0 0 4 0;
#X connect 3 0 2 0;
#X connect 4 0 5 0;
#X connect 4 1 6 0;
#X connect 4 2 7 0;
#X restore 1136 170 pd comportamento_dos_botões;
#N canvas 432 133 450 300 botao_armar 0;
#X obj 171 150 s \$0-setaEvento;
#X obj 239 130 s \$0-setaTempoTotal;
#X obj 104 171 s \$0-mensagemDeArmado;
#N canvas 766 127 450 300 controle_botao_ARMAR 0;
#X obj 120 268 outlet;
#X obj 130 93 spigot 0;
#X obj 175 74 r \$0-ativar_botões;
#X obj 172 268 outlet;
#X obj 225 269 outlet;
#X obj 100 26 r \$0-ARMAR_out;
#X obj 130 145 spigot 0;
#N canvas 817 471 450 300 se_houver_entrada_de_tempo_passa 0;
#X obj 124 174 outlet;
#X obj 189 97 r \$0-ARMAR_in;
#X obj 189 118 route set;
#X obj 120 72 bng 15 250 50 0 empty empty empty 17 7 0 10 -262144 -1
-1;
#X msg 120 92 1;
#X obj 92 23 r \$0-atividadeBotaoARMAR;
#X connect 1 0 2 0;
#X connect 2 0 0 0;
#X connect 3 0 4 0;
#X connect 4 0 0 0;
#X connect 5 0 3 0;
#X restore 175 126 pd se_houver_entrada_de_tempo_passa;
#X obj 130 203 t f f b, f 18;
#X connect 1 0 6 0;
#X connect 2 0 1 1;
#X connect 5 0 1 0;
#X connect 6 0 8 0;
#X connect 7 0 6 1;
#X connect 8 0 0 0;
#X connect 8 1 3 0;
#X connect 8 2 4 0;
#X restore 104 92 pd controle_botao_ARMAR;
#X connect 3 0 2 0;
#X connect 3 1 0 0;
#X connect 3 2 1 0;
#X restore 1137 236 pd botao_armar;
#N canvas 249 157 506 431 botao_iniciar 0;
#X obj 183 383 s \$0-toNormae;
#X obj 14 14 note 425 14 Menlo empty 0 0 0 0 0 255 255 255 0 0 iniciaOperação
;
#X msg 204 219 1;
#X obj 204 243 t f b;
#X obj 204 316 oscformat iniciar;
#X msg 236 268 format i;
#X obj 204 115 spigot 0;
#X obj 249 91 r \$0-ativar_botões;
#X obj 153 54 r \$0-INICIAR_out;
#X obj 204 178 spigot 0;
#X obj 249 156 r \$0-estadoBotaoINICIAR;
#X connect 2 0 3 0;
#X connect 3 0 4 0;
#X connect 3 1 5 0;
#X connect 4 0 0 0;
#X connect 5 0 4 0;
#X connect 6 0 9 0;
#X connect 7 0 6 1;
#X connect 8 0 6 0;
#X connect 9 0 2 0;
#X connect 10 0 9 1;
#X restore 1137 256 pd botao_iniciar;
#X text 1226 231 ___________;
#X text 1289 216 |;
#X text 1289 226 |;
#X text 1289 236 |;
#X text 1289 246 |;
#X text 1289 256 |;
#X obj 852 18 tgl 65 0 \$0-ARMAR_out \$0-ARMAR_in ARMAR 9 30 0 16 -54094
-1 -228856 0 1;
#X obj 510 64 r \$0-rangeSlider_Porta1;
#X obj 501 152 r \$0-rangeSlider_Porta2;
#X obj 506 233 r \$0-rangeSlider_Porta3;
#X obj 509 315 r \$0-rangeSlider_Porta4;
#X obj 512 392 r \$0-rangeSlider_Porta5;
#X obj 513 470 r \$0-rangeSlider_Porta6;
#X obj 515 551 r \$0-rangeSlider_Porta7;
#X obj 510 629 r \$0-rangeSlider_Porta8;
#X obj 1508 34 declare -path ./else;
#N canvas 300 189 622 379 instruções 1;
#X obj 17 18 cnv 15 580 280 empty empty empty 20 12 0 14 -233017 -66577
0;
#X text 47 29 Antes de abrir esta interface certifique-se que:;
#X text 93 81 1) A controladora Normae esteja ligada;
#X text 93 121 2) que o cabo de rede com adaptador esteja ligado no
computador, f 38;
#X text 93 181 3) Abra este programa e comece a usar, f 38;
#X obj 17 247 cnv 15 580 100 empty empty empty 20 12 0 14 -261234 -66577
0;
#X text 54 272 Se não havia realizado uns dos passos anteriores \,
feche este programa e abra novamente, f 49;
#X restore 1465 126 pd instruções;
#X connect 18 0 2 0;
#X connect 82 0 16 0;
#X connect 83 0 19 0;
#X connect 84 0 21 0;
#X connect 85 0 23 0;
#X connect 86 0 25 0;
#X connect 87 0 27 0;
#X connect 88 0 29 0;
#X connect 89 0 31 0;
#X coords 0 -1 1 1 1100 740 2 4 2;
#X restore 6 6 pd painel;
