#N canvas 517 419 653 300 10;
#X msg 97 83 listen 0;
#X obj 97 133 print;
#X obj 317 143 netsend -u;
#X msg 440 107 send foo \$1;
#X msg 328 59 disconnect;
#X floatatom 440 80 0 0 0 0 - - -;
#X obj 97 112 netreceive -u 9999;
#X msg 37 37 listen 9999;
#X msg 57 57 listen 8888;
#X msg 317 32 connect 192.168.0.200 8888;
#X connect 0 0 6 0;
#X connect 3 0 2 0;
#X connect 4 0 2 0;
#X connect 5 0 3 0;
#X connect 6 0 1 0;
#X connect 7 0 6 0;
#X connect 8 0 6 0;
#X connect 9 0 2 0;
