#N canvas 521 50 635 319 10;
#X msg 77 155 listen 7777;
#X msg 88 181 listen 0;
#X obj 77 263 print udp;
#X msg 241 189 disconnect;
#X msg 223 162 connect 192.168.0.200 5555;
#X obj 77 237 oscparse;
#X floatatom 469 44 8 0 0 0 - - -;
#X obj 318 44 tgl 25 0 empty empty empty 17 7 0 10 -262144 -1 -1 0
1;
#X obj 469 87 oscformat Fader Value;
#X obj 318 207 list prepend send;
#X obj 318 228 list trim;
#X obj 223 257 netsend -u -b;
#X obj 77 212 netreceive -u -b;
#X obj 318 87 oscformat OnOff toggle1;
#X obj 77 4 loadbang;
#X connect 0 0 12 0;
#X connect 1 0 12 0;
#X connect 3 0 11 0;
#X connect 4 0 11 0;
#X connect 5 0 2 0;
#X connect 6 0 8 0;
#X connect 7 0 13 0;
#X connect 8 0 9 0;
#X connect 9 0 10 0;
#X connect 10 0 11 0;
#X connect 12 0 5 0;
#X connect 13 0 9 0;
#X connect 14 0 0 0;
#X connect 14 0 4 0;
