#N canvas 483 237 653 300 10;
#X msg 97 83 listen 0;
#X obj 97 133 print;
#X obj 317 143 netsend -u;
#X msg 440 107 send foo \$1;
#X msg 328 59 disconnect;
#X floatatom 440 80 0 0 0 0 - - -;
#X msg 57 57 listen 1337;
#X obj 97 112 netreceive -u 1337;
#X msg 317 20 connect 192.168.0.200 1337;
#X msg 317 40 connect 192.168.0.200 42;
#X connect 0 0 7 0;
#X connect 3 0 2 0;
#X connect 4 0 2 0;
#X connect 5 0 3 0;
#X connect 6 0 7 0;
#X connect 7 0 1 0;
#X connect 8 0 2 0;
#X connect 9 0 2 0;
