#N canvas 107 138 838 487 10;
#X declare -lib ofelia;
#X obj 44 191 receiver;
#X obj 44 172 dollsym;
#X obj 70 18 initmess \$1;
#X obj 319 191 receiver;
#X obj 319 172 dollsym;
#X obj 588 191 receiver;
#X obj 588 172 dollsym;
#X obj 30 8 inlet;
#X obj 49 41 pack;
#X obj 44 154 format symbol %d_Porta%d_min_out;
#X obj 319 154 format symbol %d_Porta%d_tempo_out;
#X obj 588 154 format symbol %d_Porta%d_max_out;
#X obj 45 72 s \$0-identificadores;
#X obj 34 126 r \$0-identificadores;
#X obj 309 126 r \$0-identificadores;
#X obj 578 126 r \$0-identificadores;
#X obj 44 212 t b f;
#X obj 71 235 v \$0-min;
#X obj 319 211 t b f;
#X obj 588 211 t b f;
#X obj 346 234 v \$0-tempo;
#X obj 615 234 v \$0-max;
#N canvas 150 74 718 412 entrada_nbx_min 0;
#X obj 31 26 inlet;
#X obj 44 317 outlet;
#X obj 300 317 outlet;
#X obj 54 259 list trim;
#X obj 310 259 list trim;
#X obj 54 127 v \$0-min;
#X obj 114 127 v \$0-tempo;
#X obj 185 127 v \$0-max;
#X obj 54 83 t b b b, f 18;
#X obj 54 173 pack f f f;
#X obj 172 317 outlet;
#X obj 182 259 list trim;
#X obj 428 317 outlet;
#X obj 438 259 list trim;
#X obj 84 209 initmess read -c ../scripts/nbx_min.lua;
#X text 158 337 intervaloDeTempo;
#X text 40 337 tempoInicial;
#X text 298 337 tempoFinal;
#X text 393 337 visualizaçãoDeSliders;
#X text 556 337 ativaçãoBotãoARMAR;
#X obj 567 259 list trim;
#X obj 54 234 ofelia d -c15 \$0-nbx_min;
#X f 86;
#N canvas 649 149 450 300 send 0;
#X obj 105 51 inlet;
#X obj 214 93 r \$0-identificadores;
#X msg 214 118 \$1;
#X text 241 112 identificador do patch pai, f 13;
#X obj 214 139 format symbol %d-botaoARMAR;
#X obj 160 176 send;
#X text 196 179 \$0-botaoARMAR;
#X connect 0 0 5 0;
#X connect 1 0 2 0;
#X connect 2 0 4 0;
#X connect 4 0 5 1;
#X restore 557 317 pd send \$0-botaoARMAR;
#X obj 588 291 display;
#X connect 0 0 8 0;
#X connect 3 0 1 0;
#X connect 4 0 2 0;
#X connect 5 0 9 0;
#X connect 6 0 9 1;
#X connect 7 0 9 2;
#X connect 8 0 5 0;
#X connect 8 1 6 0;
#X connect 8 2 7 0;
#X connect 9 0 21 0;
#X connect 11 0 10 0;
#X connect 13 0 12 0;
#X connect 14 0 21 0;
#X connect 20 0 22 0;
#X connect 21 0 3 0;
#X connect 21 1 11 0;
#X connect 21 2 4 0;
#X connect 21 3 13 0;
#X connect 21 4 20 0;
#X connect 21 4 23 0;
#X restore 44 271 pd entrada_nbx_min;
#X obj 686 17 declare -lib ofelia;
#N canvas 191 152 708 408 entrada_nbx_tempo 0;
#X obj 31 18 inlet;
#X obj 44 317 outlet;
#X obj 300 317 outlet;
#X obj 54 251 list trim;
#X obj 310 251 list trim;
#X obj 54 119 v \$0-min;
#X obj 114 119 v \$0-tempo;
#X obj 185 119 v \$0-max;
#X obj 54 75 t b b b, f 18;
#X obj 54 165 pack f f f;
#X obj 172 317 outlet;
#X obj 182 251 list trim;
#X obj 428 317 outlet;
#X obj 438 251 list trim;
#X obj 84 201 initmess read -c ../scripts/nbx_tempo.lua;
#X text 158 337 intervaloDeTempo;
#X text 40 337 tempoInicial;
#X text 298 337 tempoFinal;
#X text 393 337 visualizaçãoDeSliders;
#X text 556 337 ativaçãoBotãoARMAR;
#X obj 567 251 list trim;
#X obj 54 226 ofelia d -c15 \$0-nbx_tempo;
#X f 86;
#N canvas 649 149 450 300 send 0;
#X obj 105 51 inlet;
#X obj 214 93 r \$0-identificadores;
#X msg 214 118 \$1;
#X text 241 112 identificador do patch pai, f 13;
#X obj 214 139 format symbol %d-botaoARMAR;
#X obj 160 176 send;
#X text 196 179 \$0-botaoARMAR;
#X connect 0 0 5 0;
#X connect 1 0 2 0;
#X connect 2 0 4 0;
#X connect 4 0 5 1;
#X restore 557 317 pd send \$0-botaoARMAR;
#X connect 0 0 8 0;
#X connect 3 0 1 0;
#X connect 4 0 2 0;
#X connect 5 0 9 0;
#X connect 6 0 9 1;
#X connect 7 0 9 2;
#X connect 8 0 5 0;
#X connect 8 1 6 0;
#X connect 8 2 7 0;
#X connect 9 0 21 0;
#X connect 11 0 10 0;
#X connect 13 0 12 0;
#X connect 14 0 21 0;
#X connect 20 0 22 0;
#X connect 21 0 3 0;
#X connect 21 1 11 0;
#X connect 21 2 4 0;
#X connect 21 3 13 0;
#X connect 21 4 20 0;
#X restore 319 264 pd entrada_nbx_tempo;
#N canvas 204 144 700 387 entrada_nbx_max 0;
#X obj 29 21 inlet;
#X obj 42 314 outlet;
#X obj 298 314 outlet;
#X obj 52 255 list trim;
#X obj 308 255 list trim;
#X obj 52 122 v \$0-min;
#X obj 112 122 v \$0-tempo;
#X obj 183 122 v \$0-max;
#X obj 52 78 t b b b, f 19;
#X obj 52 168 pack f f f;
#X obj 170 314 outlet;
#X obj 180 255 list trim;
#X obj 426 314 outlet;
#X obj 436 255 list trim;
#X obj 82 204 initmess read -c ../scripts/nbx_max.lua;
#X text 156 334 intervaloDeTempo;
#X text 38 334 tempoInicial;
#X text 296 334 tempoFinal;
#X text 391 334 visualizaçãoDeSliders;
#X text 554 334 ativaçãoBotãoARMAR;
#X obj 565 255 list trim;
#X obj 52 229 ofelia d -c15 \$0-nbx_max;
#X f 86;
#N canvas 649 149 450 300 send 0;
#X obj 105 51 inlet;
#X obj 214 93 r \$0-identificadores;
#X msg 214 118 \$1;
#X text 241 112 identificador do patch pai, f 13;
#X obj 214 139 format symbol %d-botaoARMAR;
#X obj 160 176 send;
#X text 196 179 \$0-botaoARMAR;
#X connect 0 0 5 0;
#X connect 1 0 2 0;
#X connect 2 0 4 0;
#X connect 4 0 5 1;
#X restore 557 317 pd send \$0-botaoARMAR;
#X connect 0 0 8 0;
#X connect 3 0 1 0;
#X connect 4 0 2 0;
#X connect 5 0 9 0;
#X connect 6 0 9 1;
#X connect 7 0 9 2;
#X connect 8 0 5 0;
#X connect 8 1 6 0;
#X connect 8 2 7 0;
#X connect 9 0 21 0;
#X connect 11 0 10 0;
#X connect 13 0 12 0;
#X connect 14 0 21 0;
#X connect 20 0 22 0;
#X connect 21 0 3 0;
#X connect 21 1 11 0;
#X connect 21 2 4 0;
#X connect 21 3 13 0;
#X connect 21 4 20 0;
#X restore 588 263 pd entrada_nbx_max;
#X text 517 404 controle de visualização dos sliders, f 24;
#X text 47 403 controle da caixa de número de tempo inicial, f 23
;
#X text 378 404 controle da caixa de número de tempo final, f 21
;
#N canvas 604 301 450 300 mandaParaTempoInicial 0;
#X obj 89 50 inlet;
#X obj 192 124 r \$0-identificadores;
#X obj 192 142 format symbol %d_Porta%d_min_in;
#X obj 165 158 send;
#X connect 0 0 3 0;
#X connect 1 0 2 0;
#X connect 2 0 3 1;
#X restore 44 388 pd mandaParaTempoInicial;
#N canvas 0 23 450 300 mandaParaIntervaloDeTempo 0;
#X obj 66 32 inlet;
#X obj 177 124 r \$0-identificadores;
#X obj 177 142 format symbol %d_Porta%d_tempo_in;
#X obj 149 159 send;
#X text 184 161 controle da caixa de número de intervalo de tempo
, f 28;
#X connect 0 0 3 0;
#X connect 1 0 2 0;
#X connect 2 0 3 1;
#X restore 195 388 pd mandaParaIntervaloDeTempo;
#X text 200 404 controle da caixa de número de intervalo de tempo
, f 27;
#N canvas 662 79 450 300 mandaParaTempoFinal 0;
#X obj 93 67 inlet;
#X obj 218 140 r \$0-identificadores;
#X obj 218 158 format symbol %d_Porta%d_max_in;
#X obj 190 174 send;
#X connect 0 0 3 0;
#X connect 1 0 2 0;
#X connect 2 0 3 1;
#X restore 372 388 pd mandaParaTempoFinal;
#N canvas 462 198 450 300 visualizaçãoDeSliders 0;
#X obj 67 50 inlet;
#X obj 188 146 r \$0-identificadores;
#X obj 160 181 send;
#X obj 188 164 format symbol %d-rangeSlider_Porta%d;
#X connect 0 0 2 0;
#X connect 1 0 3 0;
#X connect 3 0 2 1;
#X restore 516 388 pd visualizaçãoDeSliders;
#N canvas 467 292 592 394 envioParaSetarEventos 0;
#X obj 218 26 inlet;
#X obj 250 109 list split 1;
#X obj 94 139 r \$0-identificadores;
#X obj 143 226 unpack, f 37;
#X obj 176 256 pack2 f 0 0, f 24;
#X obj 284 135 unpack;
#X obj 176 358 send;
#X msg 143 175 \$2 \$1;
#X text 102 176 porta;
#X text 182 175 identificador do patch pai, f 13;
#X obj 362 282 format symbol %d-eventoNaPorta;
#X connect 0 0 1 0;
#X connect 1 1 5 0;
#X connect 2 0 7 0;
#X connect 3 0 4 0;
#X connect 3 1 10 0;
#X connect 4 0 6 0;
#X connect 5 0 4 1;
#X connect 5 1 4 2;
#X connect 7 0 3 0;
#X connect 10 0 6 1;
#X restore 668 388 pd envioParaSetarEventos;
#X text 690 403 atualiza variáveis usadas para setar eventos, f 18
;
#X connect 0 0 16 0;
#X connect 1 0 0 0;
#X connect 2 0 8 1;
#X connect 3 0 18 0;
#X connect 4 0 3 0;
#X connect 5 0 19 0;
#X connect 6 0 5 0;
#X connect 7 0 8 0;
#X connect 8 0 12 0;
#X connect 9 0 1 0;
#X connect 10 0 4 0;
#X connect 11 0 6 0;
#X connect 13 0 9 0;
#X connect 14 0 10 0;
#X connect 15 0 11 0;
#X connect 16 0 22 0;
#X connect 16 1 17 0;
#X connect 18 0 24 0;
#X connect 18 1 20 0;
#X connect 19 0 25 0;
#X connect 19 1 21 0;
#X connect 22 0 29 0;
#X connect 22 1 30 0;
#X connect 22 2 32 0;
#X connect 22 3 33 0;
#X connect 22 3 34 0;
#X connect 24 0 29 0;
#X connect 24 1 30 0;
#X connect 24 2 32 0;
#X connect 24 3 33 0;
#X connect 24 3 34 0;
#X connect 25 0 29 0;
#X connect 25 1 30 0;
#X connect 25 2 32 0;
#X connect 25 3 33 0;
#X connect 25 3 34 0;
